<mxfile host="app.diagrams.net" modified="2024-06-21T03:57:42.264Z" agent="Mozilla/5.0 (X11; Linux x86_64; rv:126.0) Gecko/20100101 Firefox/126.0" etag="myVVvyi7dik6t6_O_e5H" version="24.6.0" type="github">
  <diagram name="Page-1" id="oGC6PIoGpdY5dUBz3tll">
    <mxGraphModel dx="1274" dy="738" grid="1" gridSize="10" guides="1" tooltips="1" connect="1" arrows="1" fold="1" page="1" pageScale="1" pageWidth="850" pageHeight="1100" math="0" shadow="0">
      <root>
        <mxCell id="0" />
        <mxCell id="1" parent="0" />
      </root>
    </mxGraphModel>
  </diagram>
</mxfile>
